<?xml version="1.0" encoding="UTF-8" standalone="no"?>
<!DOCTYPE svg PUBLIC "-//W3C//DTD SVG 1.1//EN"
 "http://www.w3.org/Graphics/SVG/1.1/DTD/svg11.dtd">
<!-- Generated by graphviz version 2.43.0 (0)
 -->
<!-- Title: g Pages: 1 -->
<svg width="458pt" height="199pt"
 viewBox="0.00 0.00 458.00 199.00" xmlns="http://www.w3.org/2000/svg" xmlns:xlink="http://www.w3.org/1999/xlink">
<g id="graph0" class="graph" transform="scale(1 1) rotate(0) translate(4 195)">
<title>g</title>
<polygon fill="white" stroke="transparent" points="-4,4 -4,-195 454,-195 454,4 -4,4"/>
<text text-anchor="middle" x="225" y="-7.8" font-family="monospace" font-size="14.00">(a|b)*abb</text>
<!-- 0 -->
<g id="node1" class="node">
<title>0</title>
<ellipse fill="turquoise" stroke="turquoise" cx="27" cy="-73" rx="27" ry="18"/>
<text text-anchor="middle" x="27" y="-69.3" font-family="monospace" font-size="14.00">0</text>
</g>
<!-- 1 -->
<g id="node2" class="node">
<title>1</title>
<ellipse fill="none" stroke="black" cx="126" cy="-133" rx="27" ry="18"/>
<text text-anchor="middle" x="126" y="-129.3" font-family="monospace" font-size="14.00">1</text>
</g>
<!-- 0&#45;&gt;1 -->
<g id="edge1" class="edge">
<title>0&#45;&gt;1</title>
<path fill="none" stroke="black" d="M47.63,-85.14C61.79,-93.9 81.11,-105.85 96.91,-115.62"/>
<polygon fill="black" stroke="black" points="95.39,-118.8 105.73,-121.08 99.07,-112.84 95.39,-118.8"/>
<text text-anchor="middle" x="76.5" y="-107.8" font-family="monospace" font-size="14.00">a</text>
</g>
<!-- 2 -->
<g id="node3" class="node">
<title>2</title>
<ellipse fill="none" stroke="black" cx="423" cy="-100" rx="27" ry="18"/>
<text text-anchor="middle" x="423" y="-96.3" font-family="monospace" font-size="14.00">2</text>
</g>
<!-- 0&#45;&gt;2 -->
<g id="edge2" class="edge">
<title>0&#45;&gt;2</title>
<path fill="none" stroke="black" d="M52.53,-66.68C72.04,-62.2 100.08,-57 125,-57 125,-57 125,-57 325,-57 350.65,-57 377.08,-69.72 395.87,-81.32"/>
<polygon fill="black" stroke="black" points="394.14,-84.37 404.44,-86.86 397.95,-78.49 394.14,-84.37"/>
<text text-anchor="middle" x="225" y="-60.8" font-family="monospace" font-size="14.00">b</text>
</g>
<!-- 1&#45;&gt;1 -->
<g id="edge3" class="edge">
<title>1&#45;&gt;1</title>
<path fill="none" stroke="black" d="M117.43,-150.41C115.83,-160.09 118.69,-169 126,-169 130.57,-169 133.4,-165.52 134.49,-160.54"/>
<polygon fill="black" stroke="black" points="137.99,-160.44 134.57,-150.41 130.99,-160.38 137.99,-160.44"/>
<text text-anchor="middle" x="126" y="-172.8" font-family="monospace" font-size="14.00">a</text>
</g>
<!-- 3 -->
<g id="node4" class="node">
<title>3</title>
<ellipse fill="none" stroke="black" cx="225" cy="-147" rx="27" ry="18"/>
<text text-anchor="middle" x="225" y="-143.3" font-family="monospace" font-size="14.00">3</text>
</g>
<!-- 1&#45;&gt;3 -->
<g id="edge4" class="edge">
<title>1&#45;&gt;3</title>
<path fill="none" stroke="black" d="M148.97,-142.69C155.88,-145.27 163.64,-147.7 171,-149 176.5,-149.97 182.36,-150.37 188.12,-150.41"/>
<polygon fill="black" stroke="black" points="188.33,-153.9 198.24,-150.15 188.15,-146.91 188.33,-153.9"/>
<text text-anchor="middle" x="175.5" y="-153.8" font-family="monospace" font-size="14.00">b</text>
</g>
<!-- 2&#45;&gt;1 -->
<g id="edge5" class="edge">
<title>2&#45;&gt;1</title>
<path fill="none" stroke="black" d="M396.08,-101.82C354.31,-104.87 269.53,-111.51 198,-120 185.95,-121.43 182.95,-121.89 171,-124 168.12,-124.51 165.14,-125.06 162.15,-125.63"/>
<polygon fill="black" stroke="black" points="161.22,-122.25 152.08,-127.62 162.57,-129.12 161.22,-122.25"/>
<text text-anchor="middle" x="274.5" y="-115.8" font-family="monospace" font-size="14.00">a</text>
</g>
<!-- 2&#45;&gt;2 -->
<g id="edge6" class="edge">
<title>2&#45;&gt;2</title>
<path fill="none" stroke="black" d="M414.43,-117.41C412.83,-127.09 415.69,-136 423,-136 427.57,-136 430.4,-132.52 431.49,-127.54"/>
<polygon fill="black" stroke="black" points="434.99,-127.44 431.57,-117.41 427.99,-127.38 434.99,-127.44"/>
<text text-anchor="middle" x="423" y="-139.8" font-family="monospace" font-size="14.00">b</text>
</g>
<!-- 3&#45;&gt;1 -->
<g id="edge7" class="edge">
<title>3&#45;&gt;1</title>
<path fill="none" stroke="black" d="M202.53,-136.89C195.51,-134.08 187.57,-131.41 180,-130 174.45,-128.97 168.52,-128.6 162.72,-128.64"/>
<polygon fill="black" stroke="black" points="162.33,-125.15 152.5,-129.09 162.65,-132.14 162.33,-125.15"/>
<text text-anchor="middle" x="175.5" y="-133.8" font-family="monospace" font-size="14.00">a</text>
</g>
<!-- 4 -->
<g id="node5" class="node">
<title>4</title>
<ellipse fill="#00ff00" stroke="#00ff00" cx="324" cy="-147" rx="27" ry="18"/>
<text text-anchor="middle" x="324" y="-143.3" font-family="monospace" font-size="14.00">4</text>
</g>
<!-- 3&#45;&gt;4 -->
<g id="edge8" class="edge">
<title>3&#45;&gt;4</title>
<path fill="none" stroke="black" d="M252.25,-147C262.82,-147 275.18,-147 286.6,-147"/>
<polygon fill="black" stroke="black" points="286.73,-150.5 296.73,-147 286.73,-143.5 286.73,-150.5"/>
<text text-anchor="middle" x="274.5" y="-150.8" font-family="monospace" font-size="14.00">b</text>
</g>
<!-- 4&#45;&gt;1 -->
<g id="edge9" class="edge">
<title>4&#45;&gt;1</title>
<path fill="none" stroke="black" d="M301.27,-156.99C294.24,-160.06 286.35,-163.33 279,-166 244.99,-178.33 234.02,-177.31 198,-174 185.85,-172.88 182.07,-174.14 171,-169 163.32,-165.44 155.85,-160.22 149.3,-154.86"/>
<polygon fill="black" stroke="black" points="151.4,-152.04 141.57,-148.1 146.8,-157.31 151.4,-152.04"/>
<text text-anchor="middle" x="225" y="-179.8" font-family="monospace" font-size="14.00">a</text>
</g>
<!-- 4&#45;&gt;2 -->
<g id="edge10" class="edge">
<title>4&#45;&gt;2</title>
<path fill="none" stroke="black" d="M346.53,-136.57C359.71,-130.18 376.8,-121.9 391.38,-114.84"/>
<polygon fill="black" stroke="black" points="393.06,-117.91 400.53,-110.4 390.01,-111.61 393.06,-117.91"/>
<text text-anchor="middle" x="373.5" y="-127.8" font-family="monospace" font-size="14.00">b</text>
</g>
</g>
</svg>
